<svg xmlns="http://www.w3.org/2000/svg" version="1.1" xmlns:xlink="http://www.w3.org/1999/xlink" xmlns:svgjs="http://svgjs.dev/svgjs" width="1500" height="1500" viewBox="0 0 1500 1500"><rect width="1500" height="1500" fill="#ffffff"></rect><g transform="matrix(0.6666666666666666,0,0,0.6666666666666666,250,246.54841534930614)"><svg viewBox="0 0 280 281" data-background-color="#4a5d5e" preserveAspectRatio="xMidYMid meet" height="1505" width="1500" xmlns="http://www.w3.org/2000/svg" xmlns:xlink="http://www.w3.org/1999/xlink"><g id="tight-bounds" transform="matrix(1,0,0,1,0,0.5001043652705448)"><svg viewBox="0 0 280 280" height="280" width="280"><g><svg viewBox="0 0 280 280" height="280" width="280"><g><svg viewBox="0 0 280 280" height="280" width="280"><g id="textblocktransform"><svg viewBox="0 0 280 280" height="280" width="280" id="textblock"><g><svg viewBox="0 0 280 280" height="280" width="280"><g transform="matrix(1,0,0,1,57.50420886156945,57.50420886156945)"><svg viewBox="0 0 164.9915822768611 164.9915822768611" height="164.9915822768611" width="164.9915822768611"><g id="icon-0"><circle r="82" cx="82.49579113843055" cy="82.49579113843055" fill="#000000" data-fill-palette-color="accent"></circle><svg xmlns="http://www.w3.org/2000/svg" xmlns:xlink="http://www.w3.org/1999/xlink" version="1.1" x="24.748737341529164" y="24.74873734152917" viewBox="1.249 22.202 97.94200000000001 54.798" enable-background="new 0 0 100 100" xml:space="preserve" height="115.49410759380275" width="115.49410759380275" class="icon-jxe-0" data-fill-palette-color="quaternary" id="jxe-0"><path d="M89.777 48.451L91.044 47.494S87.227 45.576 84.574 45.754A9.4 9.4 0 0 0 81.21 46.598C87.46 42.209 91.441 43.58 92.76 41.815 93.772 40.458 89.128 35.036 85.639 31.089 84.272 29.543 82.371 27.92 80.567 26.518 80.581 26.037 80.544 23.55 78.35 22.202L77.121 23.993C75.961 23.187 75.187 22.693 75.187 22.693S68.05 25.202 69.081 26.146C70.029 27.015 77.76 29.41 80.165 32.168L78.685 34.09 79.665 35.119S80.232 34.614 80.403 35.4C80.635 36.463 78.654 35.803 78.654 35.803L76.939 33.922V30.623H73.93L73.096 29.709S68.907 30.166 68.434 31.497C68.148 32.14 68.799 34.357 68.799 34.357L68.071 34.382C68.006 34.12 67.821 33.766 67.359 33.459 67.076 33.27 65.453 32.531 63.229 31.711 63.168 31.321 62.926 30.998 62.57 30.892L61.516 30.58C61.202 30.487 60.87 30.585 60.614 30.811 57.125 29.697 53.016 28.748 50.156 29.146 49.189 29.376 44.973 29.85 42.559 35.283L32.419 35.641C30.273 35.222 27.994 34.469 25.875 33.168 25.301 32.816 24.982 32.956 24.8 33.186 24.217 32.518 23.729 31.843 23.391 31.181 23.564 31.201 23.691 31.202 23.761 31.182 24.43 30.764 25.102 27.558 24.33 27.474 23.559 27.388 10.303 25.901 9.744 25.844 9.414 25.81 8.921 26.07 8.952 26.44L4.896 26.165 6.519 28.812C4.193 29.218 3.567 30.026 3.567 30.026H2.108V31.4L3.019 32.994 10.002 36.12 9.702 36.678 3.395 37.279V37.869L4.596 38.737V40.024H5.368L6.312 38.737H7.77S5.029 41.214 4.9 41.214H3.544L1.25 46.63 2.751 46.244 3.523 44.571H4.252L12.876 37.279 20.646 38.839C21.405 39.48 22.69 40.156 24.818 40.779L28.958 41.99 26.689 43.759 22.172 42.853 23.987 46.099 30.551 50.003 28.429 51.52A15.4 15.4 0 0 0 16.693 46.114C8.163 46.114 1.249 53.028 1.249 61.559 1.25 70.086 8.165 77 16.694 77 24.55 77 31.036 71.133 32.011 63.541 32.987 63.221 34.049 62.873 35.21 62.496L36.287 65.377 34.884 65.926 32.285 69.53H69.422L69.424 69.456 69.441 68.833C69.499 66.864 69.685 61.284 69.996 59.632A9 9 0 0 1 71.127 56.622 14.5 14.5 0 0 0 70.066 62.075C70.066 70.118 76.587 76.637 84.628 76.637 92.672 76.637 99.191 70.117 99.191 62.075 99.191 55.846 95.278 50.532 89.777 48.451M84.887 36.898C85.634 36.993 87.026 37.493 88.699 37.537 91.289 37.603 92.334 40.399 92.08 41.21 91.815 42.056 90.177 41.907 88.899 41.726 86.644 41.408 83.956 36.781 84.887 36.898M18.645 51.838A1.7 1.7 0 0 1 18.78 51.561 9.77 9.77 0 0 1 24.179 54.596L23.628 54.989 19.452 55.075V54.946H17.842C17.991 53.887 18.259 52.852 18.645 51.838M19.892 56.543C19.776 56.473 19.718 56.6 19.64 56.645A0.35 0.35 0 0 1 19.453 56.698V55.934L22.393 55.873 20.666 57.105 20.644 57.078A0.18 0.18 0 0 0 20.436 57.037C20.388 57.057 20.345 57.088 20.295 57.105 20.081 57.173 19.921 57.056 19.946 56.843 19.958 56.736 20.014 56.617 19.892 56.543M16.794 60.781C17.1 60.783 17.371 61.076 17.366 61.398 17.362 61.73 17.069 61.992 16.714 61.982 16.441 61.974 16.183 61.679 16.186 61.373A0.58 0.58 0 0 1 16.794 60.781M10.177 67.713A1.4 1.4 0 0 1 9.824 67.879C9.435 67.994 9.089 67.848 8.794 67.453A11 11 0 0 1 7.223 64.551L7.945 64.229 7.726 63.74 7.057 64.041C6.827 63.268 6.685 62.461 6.639 61.621A7 7 0 0 1 6.648 60.666C6.678 60.281 6.901 60 7.239 59.893 7.308 59.872 7.38 59.854 7.457 59.846 7.783 59.819 8.109 59.791 8.325 59.801 9.372 59.809 10.365 59.92 11.328 60.115 11.284 60.361 11.248 60.617 11.231 60.888 11.104 62.82 11.57 64.372 12.614 65.499 12.647 65.532 12.682 65.563 12.715 65.599A14.2 14.2 0 0 1 10.177 67.713M11.812 58.605A15.5 15.5 0 0 1 8.676 56.685 1.4 1.4 0 0 1 8.395 56.396 9.78 9.78 0 0 1 15.217 51.539C15.257 51.6 15.293 51.666 15.323 51.741 15.733 52.776 16.005 53.847 16.169 54.945H15.702V55.498C14.372 55.92 12.691 56.799 11.812 58.605M16.935 70.947A9.7 9.7 0 0 1 12.845 70.051C12.842 69.971 12.845 69.889 12.863 69.803 13.013 69.067 13.277 68.365 13.565 67.674 13.719 67.305 13.888 66.944 14.068 66.59A7 7 0 0 0 14.794 66.912C15.066 67.014 15.336 67.096 15.596 67.16 15.635 67.172 15.674 67.18 15.713 67.189A8.8 8.8 0 0 0 17.56 67.41C17.664 67.412 17.765 67.412 17.865 67.412 18.754 67.412 19.495 67.367 20.296 67.238 20.627 67.953 20.896 68.693 21.113 69.455 21.161 69.625 21.2 69.795 21.196 69.973A9.7 9.7 0 0 1 16.935 70.947M24.123 67.797A1 1 0 0 1 23.904 67.701 10.4 10.4 0 0 1 22.549 66.722 81 81 0 0 0 25.552 65.79 9.7 9.7 0 0 1 24.123 67.797M26.043 64.727C24.156 65.35 22.837 65.768 21.78 66.047 21.619 65.895 21.46 65.742 21.306 65.584A0.16 0.16 0 0 0 21.424 65.527C21.496 65.439 21.409 65.367 21.373 65.291 21.361 65.266 21.346 65.24 21.335 65.213 21.249 64.994 21.383 64.824 21.617 64.859 21.686 64.869 21.753 64.89 21.822 64.898 21.943 64.912 21.986 64.851 21.93 64.742 21.886 64.654 21.822 64.576 21.783 64.486 21.717 64.332 21.812 64.175 21.979 64.156A1 1 0 0 1 22.135 64.158C22.299 64.166 22.376 64.051 22.301 63.904 22.28 63.863 22.247 63.828 22.219 63.791 22.149 63.699 22.103 63.602 22.156 63.486 22.207 63.375 22.307 63.353 22.417 63.349 22.504 63.345 22.604 63.343 22.638 63.245 22.675 63.14 22.585 63.087 22.516 63.038 22.401 62.956 22.399 62.843 22.416 62.726 22.433 62.617 22.512 62.556 22.613 62.529 22.697 62.506 22.792 62.496 22.811 62.39 22.832 62.275 22.729 62.249 22.66 62.204 22.551 62.132 22.493 62.056 22.483 61.979 23.842 61.756 25.297 61.524 26.712 61.299A9.8 9.8 0 0 1 26.043 64.727M30.793 42.912C30.879 42.89 32.461 43.363 32.461 43.363L26.545 46.023zM32.102 62.609A16 16 0 0 0 32.105 60.55C33.476 60.335 34.354 60.202 34.354 60.202L34.91 61.69C33.901 62.018 32.968 62.324 32.102 62.609M34.998 57.605L32.026 58.13A15 15 0 0 0 31.274 55.689L36.658 55.576zM31.978 54.815L34.311 53.701C34.323 53.748 35.04 54.271 35.691 54.739zM37.549 51.385L27.296 47.138 33.49 44.242S37.378 48.468 37.549 49.198C37.722 49.927 37.549 51.385 37.549 51.385M41.561 47.138L39.995 45.786 38.365 47.138 37.303 45.497 38.365 44.435 41.561 45.508zM51.696 57.199A3.84 3.84 0 0 1 49.582 49.816L49.668 49.794 49.678 49.816A3.837 3.837 0 0 0 47.422 54.429 3.837 3.837 0 0 0 51.931 57.12 3 3 0 0 1 51.696 57.199M56.766 59.775A2.185 2.185 0 1 1 54.625 55.967 2.186 2.186 0 0 0 56.884 59.7 2 2 0 0 1 56.766 59.775M60.312 54.615L52.704 50.325 66.09 54.615zM71.844 44.612S63.964 49.543 61.27 49.695C59.935 49.817 58.502 49.115 58.074 48.901 57.644 48.688 58.074 48.408 58.074 48.408L68.86 43.27S71.392 43.452 72.123 43.861C72.632 44.146 71.844 44.612 71.844 44.612M86.979 52.876C87.059 52.688 87.158 52.54 87.274 52.43A9.83 9.83 0 0 1 93.698 57.662 1.1 1.1 0 0 1 93.424 57.959C92.624 58.555 91.767 59.049 90.866 59.465A6.58 6.58 0 0 0 86.106 55.565C86.312 54.649 86.606 53.754 86.979 52.876M84.817 61.512C85.124 61.514 85.393 61.807 85.389 62.129 85.384 62.461 85.092 62.723 84.738 62.713 84.464 62.705 84.206 62.408 84.209 62.104A0.58 0.58 0 0 1 84.817 61.512M83.472 52.233A1 1 0 0 1 83.64 52.523C83.753 52.828 83.862 53.134 83.908 53.343 84.095 54.056 84.225 54.757 84.309 55.454A6 6 0 0 0 83.395 55.585L82.107 52.528A10 10 0 0 1 83.472 52.233M77.97 68.066A1.7 1.7 0 0 1 77.486 68.283C77.457 68.291 77.428 68.295 77.4 68.299A9.78 9.78 0 0 1 75.193 60.335C75.288 60.296 75.393 60.273 75.509 60.265 75.996 60.236 76.482 60.255 76.965 60.3L76.707 61.124 76.019 61.942 76.535 64.169 78.522 63.983A6.6 6.6 0 0 0 80.055 66.565 15 15 0 0 1 77.97 68.066M78.508 55.967L77.239 57.52A14 14 0 0 1 76.814 57.157 1.2 1.2 0 0 1 76.524 56.788 9.85 9.85 0 0 1 80.05 53.399L81.326 56.426C80.936 56.668 80.574 56.951 80.245 57.268zM88.565 71.029A9.8 9.8 0 0 1 84.869 71.752L84.743 71.75V71.027H84.209V71.726A9.8 9.8 0 0 1 80.329 70.638 1.1 1.1 0 0 1 80.365 70.284C80.526 69.702 80.761 69.145 81.014 68.598 81.158 68.287 81.313 67.983 81.475 67.686A6.55 6.55 0 0 0 84.799 68.586 6.6 6.6 0 0 0 87.695 67.916C87.959 68.521 88.182 69.15 88.356 69.812 88.418 70.117 88.546 70.451 88.574 70.81A1 1 0 0 1 88.565 71.029M91.683 68.996A1.4 1.4 0 0 1 91.298 68.805 12.6 12.6 0 0 1 89.169 66.926 6.56 6.56 0 0 0 91.32 61.164 14.3 14.3 0 0 1 94.187 61.162C94.373 61.18 94.526 61.224 94.654 61.289A9.77 9.77 0 0 1 91.683 68.996" fill="#ffffff" data-fill-palette-color="quaternary"></path></svg></g></svg></g><g id="text-0"><path d="M26.752 101.204v0c-0.352 1.092-0.88 2.044-1.583 2.856-0.694 0.808-1.576 1.437-2.644 1.886-1.062 0.451-2.303 0.671-3.722 0.66-1.412-0.008-3.004-0.299-4.775-0.87v0c-1.562-0.504-2.877-1.095-3.944-1.772-1.073-0.679-1.923-1.4-2.549-2.165-0.624-0.772-1.065-1.564-1.322-2.376-0.257-0.812-0.373-1.618-0.346-2.418 0.019-0.795 0.145-1.556 0.38-2.281v0c0.471-1.458 1.228-2.585 2.271-3.381 1.05-0.794 2.256-1.253 3.618-1.377v0l0.281 2.213 0.033 0.335-0.254 0.016c-0.151-0.114-0.305-0.163-0.461-0.149-0.165 0.019-0.422 0.066-0.771 0.141v0c-0.905 0.3-1.571 0.695-1.996 1.185-0.432 0.489-0.747 1.04-0.946 1.655v0c-0.27 0.837-0.328 1.652-0.172 2.445 0.162 0.796 0.521 1.551 1.077 2.265 0.565 0.709 1.321 1.354 2.266 1.933 0.948 0.573 2.073 1.07 3.374 1.49v0c1.262 0.407 2.452 0.633 3.571 0.677 1.119 0.044 2.136-0.065 3.05-0.325 0.908-0.263 1.673-0.665 2.296-1.208 0.623-0.542 1.058-1.196 1.305-1.961v0c0.173-0.536 0.246-1.086 0.219-1.651-0.027-0.565-0.162-1.121-0.404-1.668-0.233-0.552-0.547-1.057-0.94-1.516v0l1.627-1.315c0.863 0.993 1.428 2.027 1.694 3.102 0.266 1.075 0.189 2.266-0.233 3.574z" fill="#000000" data-fill-palette-color="primary"></path><path d="M33.208 85.806v0c-0.617 1.25-1.469 2.201-2.557 2.852-1.084 0.66-2.299 0.995-3.644 1.005-1.346 0.01-2.714-0.328-4.107-1.016v0c-1.411-0.696-2.521-1.581-3.332-2.655-0.81-1.074-1.287-2.244-1.428-3.509-0.139-1.256 0.101-2.509 0.718-3.759v0c0.617-1.25 1.466-2.203 2.547-2.857 1.087-0.651 2.305-0.984 3.654-1 1.346-0.01 2.724 0.333 4.134 1.029v0c1.392 0.687 2.493 1.568 3.304 2.642 0.807 1.08 1.28 2.248 1.419 3.504 0.145 1.259-0.091 2.513-0.708 3.764zM31.397 84.912v0c0.398-0.807 0.515-1.626 0.351-2.458-0.17-0.835-0.569-1.625-1.197-2.372-0.634-0.749-1.474-1.382-2.521-1.899v0c-1.047-0.517-2.061-0.799-3.041-0.846-0.98-0.047-1.847 0.119-2.601 0.497-0.748 0.382-1.321 0.976-1.719 1.784v0c-0.389 0.788-0.511 1.602-0.365 2.439 0.155 0.835 0.548 1.63 1.178 2.386 0.634 0.749 1.474 1.382 2.521 1.899v0c1.047 0.517 2.061 0.799 3.041 0.846 0.977 0.038 1.85-0.132 2.62-0.511 0.766-0.388 1.344-0.976 1.733-1.765z" fill="#000000" data-fill-palette-color="primary"></path><path d="M39.895 73.693l-1.567 2.274-3.363-8.902-9.261 0.073 1.509-2.188 6.966-0.066-2.51-6.399 1.416-2.053 3.328 8.352 9.74-0.168-1.573 2.282-7.347 0.091z" fill="#000000" data-fill-palette-color="primary"></path><path d="M35.652 42.487v0l1.755-2.051c1.023 0.875 1.833 1.587 2.432 2.135 0.602 0.543 1.095 1.014 1.476 1.413 0.382 0.399 0.743 0.79 1.085 1.172 0.336 0.378 0.756 0.828 1.26 1.349v0l-1.052 1.23c-0.593-0.417-1.1-0.765-1.521-1.044-0.431-0.278-0.87-0.573-1.318-0.884-0.447-0.301-0.988-0.71-1.623-1.226-0.64-0.52-1.471-1.218-2.494-2.094z" fill="#000000" data-fill-palette-color="primary"></path><path d="M67.142 44.731v0c-0.664 0.533-1.355 0.973-2.072 1.32-0.721 0.341-1.462 0.588-2.222 0.739-0.759 0.151-1.536 0.198-2.331 0.141v0l-0.379-2.629-0.033-0.37 0.244-0.025c0.148 0.119 0.302 0.233 0.461 0.344 0.163 0.116 0.425 0.2 0.786 0.255v0c0.666 0.073 1.354 0.019 2.063-0.163 0.703-0.177 1.46-0.59 2.268-1.24v0c0.648-0.52 1.132-1.037 1.452-1.549 0.32-0.512 0.487-1.012 0.501-1.499 0.014-0.487-0.134-0.923-0.443-1.309v0c-0.211-0.262-0.451-0.453-0.722-0.57-0.265-0.122-0.584-0.174-0.957-0.156-0.383 0.017-0.838 0.092-1.366 0.224-0.523 0.138-1.134 0.343-1.834 0.613v0c-1.121 0.469-2.167 0.801-3.136 0.998-0.96 0.198-1.812 0.212-2.555 0.043-0.739-0.164-1.35-0.546-1.832-1.146v0c-0.49-0.611-0.748-1.272-0.773-1.983-0.024-0.721 0.19-1.47 0.642-2.245 0.452-0.786 1.161-1.566 2.125-2.341v0c0.557-0.447 1.096-0.813 1.615-1.098 0.52-0.285 1.035-0.505 1.546-0.659 0.515-0.149 1.03-0.237 1.546-0.264 0.511-0.022 1.043 0.004 1.596 0.08v0l-0.025 2.174-0.017 0.357-0.232-0.025c-0.133-0.122-0.283-0.226-0.449-0.313-0.167-0.077-0.422-0.137-0.765-0.179v0c-0.661 0.011-1.312 0.137-1.955 0.38-0.637 0.238-1.194 0.549-1.67 0.931v0c-0.702 0.563-1.205 1.17-1.511 1.821-0.315 0.65-0.269 1.229 0.14 1.738v0c0.211 0.262 0.51 0.449 0.898 0.56 0.384 0.106 0.926 0.089 1.626-0.05 0.695-0.144 1.603-0.45 2.724-0.918v0c1.25-0.484 2.309-0.805 3.177-0.965 0.863-0.165 1.599-0.143 2.206 0.066 0.609 0.199 1.145 0.587 1.61 1.165v0c0.533 0.664 0.853 1.43 0.958 2.297 0.106 0.867-0.071 1.766-0.53 2.698-0.464 0.936-1.256 1.854-2.375 2.752z" fill="#000000" data-fill-palette-color="primary"></path><path d="M98.049 27.319v0c-1.276 0.51-2.502 0.756-3.677 0.737-1.18-0.009-2.319-0.268-3.417-0.776v0l0.341-2.423 0.013-0.327 0.27 0.037c0.097 0.131 0.213 0.274 0.348 0.426 0.133 0.147 0.365 0.302 0.697 0.466v0c0.726 0.243 1.503 0.354 2.33 0.333 0.83-0.014 1.705-0.204 2.624-0.571v0c0.58-0.232 1.081-0.535 1.5-0.91 0.42-0.375 0.752-0.785 0.995-1.23 0.241-0.451 0.379-0.921 0.414-1.408 0.044-0.483-0.026-0.955-0.21-1.414v0c-0.143-0.357-0.311-0.667-0.505-0.93-0.187-0.265-0.427-0.477-0.719-0.634-0.295-0.163-0.658-0.296-1.09-0.396-0.429-0.11-0.959-0.197-1.592-0.263-0.63-0.059-1.371-0.099-2.223-0.121v0c-1.568 0.02-2.863-0.121-3.886-0.423-1.032-0.305-1.848-0.737-2.449-1.296-0.594-0.561-1.037-1.206-1.327-1.933v0c-0.385-0.963-0.482-1.901-0.292-2.813 0.193-0.906 0.651-1.74 1.375-2.502 0.724-0.763 1.701-1.39 2.932-1.882v0c0.708-0.283 1.43-0.457 2.166-0.521 0.736-0.065 1.462-0.033 2.179 0.094 0.714 0.121 1.396 0.356 2.045 0.703v0l-0.574 2.116-0.083 0.322-0.241-0.048c-0.085-0.158-0.193-0.307-0.323-0.448-0.13-0.14-0.36-0.289-0.689-0.446v0c-0.691-0.286-1.355-0.402-1.991-0.347-0.633 0.046-1.335 0.223-2.107 0.531v0c-0.523 0.209-0.959 0.468-1.309 0.778-0.343 0.307-0.608 0.654-0.795 1.039-0.184 0.392-0.283 0.79-0.299 1.196-0.022 0.408 0.041 0.797 0.189 1.167v0c0.143 0.357 0.314 0.666 0.515 0.926 0.2 0.26 0.459 0.482 0.776 0.666 0.32 0.19 0.715 0.347 1.186 0.47 0.473 0.129 1.041 0.217 1.703 0.262 0.658 0.055 1.448 0.08 2.371 0.074v0c1.115 0.013 2.068 0.084 2.858 0.211 0.793 0.134 1.457 0.342 1.992 0.625 0.534 0.282 0.982 0.643 1.343 1.083 0.352 0.436 0.649 0.958 0.891 1.564v0c0.359 0.899 0.488 1.869 0.385 2.908-0.1 1.046-0.519 2.042-1.258 2.989-0.73 0.95-1.857 1.73-3.382 2.339z" fill="#000000" data-fill-palette-color="primary"></path><path d="M115.968 21.941v0c-1.096 0.261-2.132 0.328-3.108 0.201-0.977-0.128-1.867-0.442-2.672-0.942-0.797-0.502-1.485-1.196-2.063-2.083-0.587-0.891-1.028-1.958-1.324-3.201v0c-0.302-1.27-0.39-2.439-0.264-3.507 0.125-1.075 0.42-2.017 0.884-2.827 0.469-0.818 1.083-1.501 1.843-2.049 0.758-0.555 1.604-0.944 2.539-1.166v0c0.855-0.204 1.688-0.25 2.499-0.139 0.809 0.104 1.556 0.381 2.242 0.832 0.686 0.451 1.293 1.087 1.821 1.907 0.534 0.819 0.947 1.84 1.238 3.063v0c0.041 0.174 0.078 0.356 0.109 0.546 0.031 0.19 0.057 0.375 0.078 0.553v0l-10.655 2.538c0.276 0.951 0.639 1.747 1.088 2.389 0.456 0.64 0.965 1.133 1.528 1.479 0.568 0.338 1.178 0.542 1.831 0.613 0.654 0.077 1.318 0.036 1.993-0.125v0c0.528-0.126 1.005-0.303 1.43-0.532 0.432-0.23 0.822-0.521 1.17-0.872 0.342-0.343 0.632-0.74 0.87-1.192v0l1.619 0.97c-0.295 0.6-0.668 1.137-1.12 1.612-0.45 0.482-0.974 0.878-1.57 1.19-0.595 0.318-1.263 0.566-2.006 0.742zM108.799 13.809v0l8.229-1.96c-0.167-0.702-0.41-1.308-0.729-1.818-0.321-0.517-0.699-0.935-1.136-1.255-0.431-0.328-0.909-0.539-1.433-0.633-0.517-0.096-1.07-0.074-1.657 0.067v0c-0.528 0.126-1.005 0.331-1.432 0.616-0.426 0.285-0.791 0.668-1.092 1.15-0.304 0.475-0.525 1.029-0.664 1.662-0.139 0.633-0.168 1.357-0.086 2.171z" fill="#000000" data-fill-palette-color="primary"></path><path d="M131.606 19.662v0c-1.745 0.152-3.121-0.128-4.127-0.841-1.014-0.712-1.574-1.683-1.682-2.915v0c-0.072-0.828 0.065-1.592 0.411-2.29 0.347-0.692 0.852-1.298 1.517-1.818 0.665-0.52 1.455-0.944 2.372-1.272 0.923-0.329 1.911-0.539 2.965-0.631v0c0.376-0.033 0.76-0.063 1.151-0.09 0.398-0.021 0.814-0.033 1.248-0.036 0.441-0.004 0.901 0.008 1.379 0.035v0l0.222 1.842c-0.403-0.034-0.815-0.05-1.235-0.047-0.414 0.002-0.823 0.01-1.228 0.024-0.406 0.008-0.801 0.028-1.184 0.062v0c-0.808 0.07-1.541 0.203-2.2 0.398-0.659 0.195-1.223 0.448-1.692 0.758-0.469 0.31-0.819 0.688-1.049 1.136-0.23 0.448-0.318 0.976-0.266 1.585v0c0.041 0.465 0.157 0.855 0.35 1.169 0.199 0.307 0.451 0.543 0.755 0.71 0.311 0.166 0.665 0.276 1.063 0.332 0.398 0.055 0.833 0.062 1.305 0.02v0c0.876-0.076 1.64-0.284 2.294-0.623 0.66-0.34 1.206-0.798 1.639-1.374 0.439-0.583 0.747-1.275 0.925-2.077 0.178-0.808 0.223-1.716 0.136-2.721v0c-0.132-1.519-0.417-2.691-0.854-3.515-0.43-0.818-1.013-1.374-1.749-1.668-0.736-0.301-1.652-0.404-2.747-0.309v0c-0.739 0.064-1.456 0.268-2.15 0.611-0.694 0.343-1.307 0.831-1.838 1.463v0l-1.304-1.438c0.656-0.781 1.437-1.39 2.344-1.828 0.907-0.438 1.887-0.702 2.941-0.793v0c1.006-0.088 1.933-0.048 2.782 0.119 0.85 0.174 1.597 0.523 2.242 1.046 0.645 0.516 1.17 1.243 1.576 2.18 0.413 0.936 0.682 2.13 0.808 3.58v0l0.711 8.161-2.628 0.229-0.204-2.351c-0.239 0.586-0.551 1.075-0.938 1.468-0.38 0.392-0.797 0.704-1.253 0.937-0.456 0.233-0.923 0.411-1.401 0.535-0.486 0.118-0.955 0.197-1.407 0.237z" fill="#000000" data-fill-palette-color="primary"></path><path d="M150.825 19.522v0c-0.85-0.05-1.658-0.186-2.423-0.41-0.764-0.23-1.479-0.544-2.143-0.94-0.665-0.397-1.273-0.883-1.825-1.459v0l1.481-2.205 0.224-0.297 0.198 0.146c0.03 0.188 0.068 0.376 0.111 0.564 0.044 0.195 0.181 0.434 0.413 0.716v0c0.446 0.501 0.992 0.921 1.64 1.262 0.641 0.34 1.479 0.54 2.514 0.6v0c0.83 0.048 1.535-0.01 2.116-0.176 0.581-0.166 1.04-0.424 1.376-0.776 0.337-0.352 0.52-0.775 0.549-1.269v0c0.02-0.336-0.032-0.638-0.153-0.906-0.115-0.268-0.317-0.521-0.606-0.758-0.295-0.244-0.683-0.494-1.164-0.749-0.481-0.248-1.071-0.506-1.772-0.775v0c-1.146-0.404-2.145-0.858-2.996-1.361-0.845-0.497-1.487-1.057-1.925-1.681-0.439-0.617-0.636-1.31-0.591-2.079v0c0.046-0.782 0.298-1.445 0.756-1.989 0.466-0.551 1.126-0.963 1.981-1.236 0.863-0.28 1.911-0.384 3.146-0.312v0c0.713 0.042 1.358 0.131 1.935 0.267 0.577 0.137 1.106 0.319 1.589 0.547 0.482 0.235 0.923 0.515 1.323 0.841 0.394 0.326 0.771 0.702 1.132 1.129v0l-1.476 1.596-0.252 0.254-0.155-0.174c-0.017-0.18-0.058-0.358-0.124-0.534-0.073-0.169-0.222-0.385-0.448-0.645v0c-0.498-0.435-1.066-0.778-1.705-1.028-0.632-0.25-1.254-0.393-1.863-0.429v0c-0.898-0.052-1.679 0.06-2.343 0.338-0.669 0.271-1.023 0.732-1.061 1.383v0c-0.02 0.336 0.078 0.675 0.292 1.018 0.214 0.336 0.627 0.687 1.239 1.053 0.612 0.359 1.491 0.741 2.637 1.145v0c1.252 0.479 2.253 0.95 3.004 1.414 0.751 0.457 1.282 0.966 1.593 1.527 0.319 0.555 0.456 1.203 0.414 1.944v0c-0.05 0.85-0.326 1.632-0.829 2.346-0.503 0.714-1.237 1.263-2.201 1.647-0.972 0.384-2.175 0.534-3.608 0.451z" fill="#000000" data-fill-palette-color="primary"></path><path d="M173.458 22.691l-9.787-1.922 0.377-1.921 3.873 0.76 2.213-11.274-3.67-0.72 0.377-1.921 6.046 1.187-2.59 13.195 3.539 0.694zM172.186 3.445v0c-0.458-0.09-0.82-0.333-1.086-0.728-0.265-0.395-0.353-0.825-0.261-1.29v0c0.095-0.485 0.334-0.862 0.715-1.13 0.382-0.268 0.815-0.355 1.301-0.26v0c0.465 0.091 0.836 0.343 1.112 0.754 0.276 0.411 0.369 0.846 0.279 1.305v0c-0.091 0.465-0.341 0.829-0.75 1.092-0.409 0.263-0.845 0.349-1.31 0.257z" fill="#000000" data-fill-palette-color="primary"></path><path d="M185.011 27.17v0c-0.734-0.272-1.397-0.698-1.989-1.276-0.585-0.576-1.049-1.29-1.392-2.142-0.346-0.846-0.507-1.814-0.484-2.905 0.019-1.099 0.267-2.29 0.742-3.571v0c0.492-1.327 1.093-2.394 1.802-3.201 0.701-0.803 1.458-1.393 2.273-1.772 0.817-0.386 1.636-0.588 2.455-0.606 0.82-0.018 1.597 0.109 2.332 0.381v0c0.676 0.251 1.246 0.583 1.707 0.995 0.458 0.404 0.824 0.87 1.098 1.397 0.276 0.52 0.434 1.073 0.473 1.658v0l3.221-8.685 2.086 0.774 0.319 0.118-0.082 0.222c-0.174 0.075-0.302 0.181-0.383 0.32-0.087 0.136-0.198 0.385-0.331 0.745v0l-6.415 17.392c-0.141 0.38-0.263 0.76-0.368 1.138-0.104 0.379-0.152 0.786-0.145 1.221v0l-2.251-0.834c-0.01-0.289 0.01-0.571 0.061-0.846 0.054-0.266 0.119-0.52 0.195-0.763 0.084-0.247 0.173-0.496 0.266-0.747v0c-0.483 0.393-1.009 0.706-1.58 0.941-0.562 0.231-1.146 0.355-1.753 0.372-0.601 0.019-1.22-0.09-1.857-0.326zM186.096 25.309v0c0.696 0.258 1.342 0.333 1.939 0.224 0.588-0.104 1.126-0.359 1.613-0.764 0.481-0.408 0.919-0.927 1.314-1.557 0.391-0.639 0.731-1.348 1.02-2.128v0c0.396-1.069 0.615-2.083 0.655-3.043 0.045-0.951-0.137-1.784-0.546-2.499-0.402-0.713-1.067-1.242-1.994-1.586v0c-0.631-0.234-1.24-0.321-1.827-0.259-0.584 0.054-1.127 0.253-1.627 0.594-0.5 0.342-0.954 0.804-1.36 1.386-0.406 0.582-0.757 1.272-1.054 2.071v0c-0.444 1.198-0.677 2.31-0.698 3.335-0.021 1.025 0.181 1.902 0.607 2.632 0.423 0.736 1.076 1.267 1.958 1.594z" fill="#000000" data-fill-palette-color="primary"></path><path d="M202.328 35.351v0c-0.988-0.541-1.802-1.186-2.44-1.936-0.639-0.749-1.089-1.579-1.351-2.49-0.255-0.907-0.3-1.883-0.135-2.929 0.162-1.055 0.55-2.142 1.165-3.263v0c0.627-1.145 1.346-2.071 2.155-2.778 0.814-0.714 1.664-1.215 2.551-1.505 0.896-0.292 1.81-0.387 2.741-0.285 0.934 0.096 1.823 0.376 2.666 0.838v0c0.771 0.422 1.42 0.946 1.947 1.571 0.53 0.619 0.899 1.326 1.106 2.121 0.207 0.795 0.231 1.673 0.072 2.636-0.153 0.966-0.531 2-1.135 3.103v0c-0.086 0.157-0.181 0.316-0.285 0.478-0.104 0.162-0.209 0.317-0.312 0.463v0l-9.607-5.261c-0.433 0.891-0.698 1.725-0.795 2.502-0.091 0.781-0.043 1.488 0.142 2.122 0.195 0.631 0.51 1.192 0.947 1.682 0.433 0.496 0.954 0.91 1.563 1.243v0c0.476 0.261 0.949 0.449 1.418 0.565 0.475 0.119 0.959 0.165 1.452 0.137 0.484-0.025 0.965-0.125 1.445-0.301v0l0.55 1.805c-0.621 0.247-1.258 0.396-1.911 0.445-0.657 0.055-1.311-0.001-1.963-0.17-0.655-0.163-1.317-0.427-1.986-0.793zM202.462 24.51v0l7.42 4.063c0.346-0.633 0.572-1.245 0.677-1.838 0.108-0.598 0.108-1.163-0.001-1.692-0.1-0.532-0.313-1.009-0.639-1.43-0.319-0.418-0.744-0.772-1.274-1.063v0c-0.476-0.261-0.968-0.428-1.475-0.502-0.508-0.074-1.035-0.034-1.582 0.121-0.544 0.149-1.079 0.412-1.607 0.788-0.527 0.377-1.034 0.894-1.519 1.553z" fill="#000000" data-fill-palette-color="primary"></path><path d="M229.383 56.036l-4.149-4.243 15.014-14.682 4.171 4.265c0.85 0.869 1.492 1.702 1.925 2.499 0.438 0.802 0.694 1.565 0.768 2.29 0.084 0.725-0.006 1.404-0.27 2.037-0.26 0.629-0.655 1.202-1.185 1.721v0c-0.467 0.456-1.007 0.822-1.623 1.096-0.615 0.265-1.253 0.399-1.913 0.402-0.661 0.002-1.315-0.151-1.963-0.46v0c0.266 0.557 0.439 1.132 0.52 1.726 0.081 0.603 0.069 1.196-0.034 1.777-0.099 0.587-0.278 1.141-0.536 1.663-0.263 0.527-0.604 0.994-1.021 1.402v0c-0.624 0.61-1.306 1.056-2.048 1.34-0.746 0.288-1.527 0.384-2.343 0.287-0.815-0.097-1.669-0.4-2.561-0.91-0.893-0.51-1.81-1.247-2.752-2.21zM234.236 46.246l-5.901 5.771 2.803 2.866c0.692 0.707 1.388 1.237 2.087 1.59 0.705 0.348 1.411 0.465 2.117 0.351 0.71-0.109 1.409-0.499 2.097-1.171v0c0.599-0.586 1-1.232 1.202-1.94 0.207-0.702 0.165-1.468-0.127-2.296-0.292-0.829-0.918-1.735-1.879-2.717v0zM240.454 40.166l-4.796 4.69 2.305 2.357c0.864 0.884 1.652 1.483 2.363 1.798 0.711 0.304 1.356 0.394 1.935 0.269 0.584-0.129 1.102-0.415 1.555-0.857v0c0.334-0.327 0.588-0.69 0.762-1.092 0.17-0.406 0.238-0.843 0.204-1.309-0.038-0.472-0.195-0.981-0.471-1.528-0.281-0.542-0.711-1.111-1.292-1.705v0z" fill="#000000" data-fill-palette-color="primary"></path><path d="M244.477 74.45l-5.971-7.989 1.568-1.172 2.362 3.161 9.203-6.878-2.239-2.996 1.568-1.172 3.689 4.935-10.771 8.051 2.159 2.888zM256.44 59.321v0c-0.28-0.374-0.385-0.797-0.317-1.268 0.068-0.471 0.292-0.849 0.671-1.132v0c0.396-0.296 0.826-0.416 1.289-0.359 0.463 0.057 0.842 0.284 1.138 0.68v0c0.284 0.38 0.39 0.815 0.32 1.305-0.071 0.49-0.293 0.875-0.668 1.155v0c-0.38 0.284-0.809 0.386-1.288 0.307-0.479-0.079-0.861-0.308-1.145-0.688z" fill="#000000" data-fill-palette-color="primary"></path><path d="M252.586 89.974l4.054-9.219-2.605-0.921-5.174 2.693-1.136-2.185 19.88-10.346 1.118 2.148 0.157 0.302-0.211 0.109c-0.179-0.062-0.345-0.068-0.498-0.019-0.156 0.042-0.405 0.152-0.746 0.33v0l-11.178 5.817 9.897 3.55c0.042 0.125 0.086 0.254 0.131 0.385 0.045 0.131 0.095 0.264 0.149 0.398 0.054 0.134 0.118 0.279 0.191 0.435 0.064 0.153 0.132 0.299 0.206 0.439v0l0.404 0.777-8.398-2.924-4.676 10.948z" fill="#000000" data-fill-palette-color="primary"></path><path d="M257.415 103.201v0c-0.371-1.064-0.542-2.088-0.514-3.073 0.028-0.985 0.25-1.902 0.667-2.753 0.419-0.844 1.04-1.599 1.863-2.263 0.827-0.674 1.844-1.221 3.051-1.641v0c1.233-0.429 2.387-0.635 3.462-0.617 1.082 0.016 2.049 0.214 2.902 0.594 0.861 0.384 1.603 0.926 2.225 1.625 0.628 0.698 1.101 1.501 1.417 2.409v0c0.289 0.83 0.42 1.654 0.391 2.471-0.022 0.815-0.222 1.587-0.601 2.316-0.379 0.729-0.95 1.397-1.713 2.004-0.761 0.614-1.735 1.128-2.922 1.541v0c-0.169 0.059-0.346 0.113-0.532 0.164-0.186 0.05-0.367 0.095-0.543 0.134v0l-3.602-10.344c-0.918 0.371-1.674 0.812-2.267 1.324-0.59 0.518-1.029 1.075-1.317 1.67-0.279 0.599-0.42 1.227-0.424 1.883-0.011 0.658 0.098 1.315 0.326 1.97v0c0.178 0.512 0.403 0.969 0.673 1.37 0.273 0.407 0.601 0.765 0.986 1.075 0.376 0.306 0.8 0.554 1.274 0.745v0l-0.802 1.709c-0.627-0.233-1.199-0.55-1.717-0.951-0.525-0.399-0.972-0.88-1.342-1.442-0.377-0.56-0.691-1.2-0.941-1.92zM264.78 95.245v0l2.783 7.989c0.681-0.237 1.259-0.54 1.734-0.909 0.482-0.371 0.859-0.79 1.134-1.257 0.283-0.462 0.444-0.959 0.485-1.489 0.043-0.524-0.035-1.072-0.234-1.643v0c-0.178-0.512-0.431-0.966-0.758-1.361-0.327-0.395-0.745-0.719-1.255-0.971-0.503-0.254-1.077-0.418-1.72-0.492-0.644-0.074-1.367-0.029-2.169 0.133z" fill="#000000" data-fill-palette-color="primary"></path><path d="M9.333 141.632c0-1.419 1.15-2.568 2.569-2.569 1.419 0 2.568 1.15 2.568 2.569 0 1.419-1.15 2.568-2.568 2.568-1.419 0-2.568-1.15-2.569-2.568z" fill="#000000" data-fill-palette-color="primary"></path><path d="M269 141.632c0-1.419 1.15-2.568 2.568-2.569 1.419 0 2.568 1.15 2.569 2.569 0 1.419-1.15 2.568-2.569 2.568-1.419 0-2.568-1.15-2.568-2.568z" fill="#000000" data-fill-palette-color="primary"></path></g><g id="text-1"><path d="M11.448 187.001v0c-0.352-1.092-0.481-2.173-0.387-3.243 0.09-1.061 0.438-2.087 1.042-3.076 0.598-0.987 1.476-1.891 2.633-2.712 1.15-0.819 2.611-1.514 4.383-2.087v0c1.562-0.504 2.974-0.794 4.234-0.869 1.267-0.077 2.379 0.012 3.335 0.266 0.958 0.261 1.779 0.646 2.462 1.154 0.684 0.508 1.249 1.095 1.694 1.76 0.45 0.656 0.792 1.347 1.027 2.072v0c0.471 1.458 0.515 2.815 0.134 4.071-0.388 1.258-1.097 2.336-2.129 3.232v0l-1.523-1.63-0.222-0.253 0.197-0.162c0.189 0.004 0.343-0.046 0.461-0.148 0.123-0.112 0.304-0.3 0.543-0.565v0c0.559-0.772 0.868-1.482 0.926-2.129 0.065-0.649-0.002-1.281-0.201-1.895v0c-0.27-0.837-0.7-1.532-1.29-2.085-0.597-0.551-1.329-0.953-2.198-1.207-0.873-0.245-1.863-0.326-2.97-0.243-1.104 0.09-2.307 0.344-3.607 0.764v0c-1.262 0.407-2.359 0.921-3.293 1.54-0.933 0.619-1.695 1.302-2.284 2.048-0.583 0.744-0.968 1.518-1.156 2.322-0.188 0.804-0.158 1.589 0.089 2.353v0c0.173 0.536 0.436 1.025 0.787 1.468 0.352 0.442 0.786 0.814 1.303 1.116 0.512 0.311 1.062 0.538 1.649 0.681v0l-0.55 2.018c-1.281-0.301-2.344-0.81-3.189-1.526-0.845-0.716-1.478-1.728-1.9-3.035z" fill="#000000" data-fill-palette-color="primary"></path><path d="M18.915 204.511v0c-0.617-1.25-0.853-2.505-0.708-3.764 0.136-1.262 0.609-2.43 1.419-3.504 0.81-1.074 1.912-1.955 3.304-2.642v0c1.411-0.696 2.789-1.039 4.134-1.029 1.346 0.01 2.563 0.344 3.654 1.001 1.081 0.654 1.93 1.606 2.547 2.856v0c0.617 1.25 0.856 2.504 0.718 3.759-0.145 1.259-0.621 2.428-1.428 3.509-0.81 1.074-1.921 1.959-3.332 2.655v0c-1.392 0.687-2.761 1.026-4.107 1.016-1.349-0.016-2.563-0.351-3.644-1.005-1.087-0.651-1.939-1.601-2.557-2.852zM20.726 203.617v0c0.398 0.807 0.977 1.398 1.738 1.774 0.766 0.373 1.636 0.537 2.61 0.493 0.98-0.047 1.994-0.329 3.041-0.846v0c1.047-0.517 1.888-1.15 2.521-1.899 0.634-0.749 1.029-1.538 1.188-2.367 0.152-0.826 0.028-1.642-0.37-2.449v0c-0.389-0.788-0.961-1.38-1.714-1.774-0.757-0.385-1.627-0.557-2.61-0.516-0.98 0.047-1.994 0.329-3.042 0.846v0c-1.047 0.517-1.888 1.15-2.521 1.899-0.624 0.752-1.02 1.549-1.187 2.39-0.158 0.844-0.042 1.66 0.346 2.449z" fill="#000000" data-fill-palette-color="primary"></path><path d="M27.215 218.312l-1.568-2.273 9.515 0.023 3.226-8.682 1.509 2.189-2.416 6.534 6.873-0.07 1.415 2.053-8.99 0.14-3.306 9.163-1.574-2.282 2.528-6.899z" fill="#000000" data-fill-palette-color="primary"></path><path d="M58.005 221.647v0l1.755 2.051c-1.023 0.875-1.851 1.566-2.485 2.073-0.629 0.511-1.171 0.925-1.624 1.24-0.453 0.316-0.895 0.613-1.326 0.891-0.426 0.274-0.935 0.619-1.528 1.036v0l-1.051-1.229c0.503-0.521 0.925-0.968 1.266-1.342 0.342-0.383 0.701-0.771 1.077-1.166 0.367-0.395 0.854-0.867 1.462-1.413 0.613-0.552 1.431-1.265 2.454-2.141z" fill="#000000" data-fill-palette-color="primary"></path><path d="M57.074 251.073v0c-0.664-0.533-1.243-1.112-1.737-1.737-0.489-0.631-0.89-1.3-1.202-2.009-0.312-0.709-0.526-1.457-0.641-2.246v0l2.484-0.939 0.355-0.112 0.077 0.233c-0.084 0.17-0.163 0.345-0.236 0.525-0.078 0.184-0.104 0.458-0.079 0.822v0c0.073 0.666 0.275 1.326 0.605 1.979 0.325 0.649 0.892 1.297 1.701 1.946v0c0.648 0.52 1.257 0.881 1.826 1.083 0.569 0.202 1.093 0.257 1.572 0.165 0.479-0.091 0.873-0.33 1.182-0.715v0c0.211-0.262 0.344-0.539 0.401-0.828 0.062-0.285 0.043-0.608-0.055-0.969-0.099-0.37-0.271-0.799-0.514-1.285-0.248-0.481-0.58-1.034-0.995-1.658v0c-0.7-0.994-1.251-1.942-1.653-2.846-0.401-0.894-0.599-1.723-0.594-2.486 0-0.757 0.241-1.436 0.723-2.036v0c0.49-0.611 1.08-1.005 1.768-1.183 0.699-0.179 1.476-0.132 2.332 0.141 0.865 0.272 1.78 0.795 2.744 1.569v0c0.557 0.447 1.031 0.894 1.422 1.339 0.391 0.446 0.717 0.901 0.978 1.367 0.257 0.47 0.454 0.954 0.591 1.452 0.132 0.494 0.221 1.019 0.268 1.576v0l-2.128 0.445-0.353 0.061-0.025-0.232c0.09-0.156 0.16-0.325 0.208-0.506 0.039-0.18 0.042-0.442 0.01-0.786v0c-0.153-0.643-0.418-1.252-0.794-1.826-0.37-0.57-0.794-1.047-1.27-1.429v0c-0.702-0.563-1.403-0.924-2.105-1.082-0.702-0.167-1.258 0.003-1.666 0.512v0c-0.211 0.262-0.328 0.595-0.353 0.999-0.02 0.398 0.113 0.923 0.4 1.576 0.291 0.647 0.786 1.468 1.486 2.461v0c0.743 1.116 1.285 2.08 1.628 2.893 0.347 0.807 0.485 1.53 0.413 2.169-0.062 0.637-0.326 1.245-0.79 1.823v0c-0.533 0.664-1.212 1.142-2.034 1.432-0.823 0.29-1.74 0.312-2.749 0.066-1.014-0.251-2.081-0.825-3.201-1.724z" fill="#000000" data-fill-palette-color="primary"></path><path d="M92.082 270.879v0c-1.276-0.51-2.334-1.177-3.173-2-0.849-0.82-1.496-1.792-1.941-2.918v0l1.916-1.52 0.236-0.227 0.17 0.212c-0.02 0.162-0.034 0.345-0.042 0.549-0.005 0.198 0.056 0.47 0.184 0.817v0c0.359 0.676 0.845 1.292 1.459 1.848 0.611 0.562 1.376 1.027 2.294 1.394v0c0.58 0.232 1.152 0.357 1.715 0.374 0.563 0.018 1.086-0.051 1.569-0.205 0.486-0.161 0.909-0.406 1.27-0.735 0.365-0.32 0.639-0.71 0.822-1.17v0c0.143-0.357 0.234-0.698 0.276-1.021 0.047-0.321 0.019-0.64-0.085-0.955-0.101-0.321-0.273-0.668-0.517-1.039-0.235-0.375-0.559-0.804-0.972-1.287-0.416-0.477-0.925-1.017-1.528-1.62v0c-1.15-1.066-1.991-2.061-2.525-2.984-0.537-0.932-0.831-1.808-0.881-2.627-0.044-0.816 0.08-1.588 0.37-2.316v0c0.385-0.963 0.961-1.71 1.727-2.239 0.764-0.523 1.671-0.812 2.721-0.866 1.05-0.054 2.19 0.165 3.421 0.657v0c0.708 0.283 1.351 0.655 1.93 1.115 0.578 0.46 1.083 0.984 1.514 1.57 0.434 0.58 0.766 1.22 0.997 1.919v0l-1.875 1.137-0.281 0.177-0.141-0.201c0.047-0.173 0.072-0.356 0.074-0.548 0.002-0.191-0.061-0.457-0.192-0.797v0c-0.304-0.684-0.705-1.225-1.204-1.624-0.49-0.403-1.121-0.759-1.892-1.067v0c-0.523-0.209-1.018-0.322-1.485-0.339-0.461-0.014-0.891 0.055-1.292 0.206-0.403 0.157-0.75 0.377-1.041 0.66-0.297 0.281-0.52 0.606-0.667 0.976v0c-0.143 0.357-0.231 0.699-0.266 1.026-0.034 0.327 0 0.666 0.104 1.018 0.101 0.358 0.28 0.744 0.536 1.157 0.254 0.42 0.605 0.874 1.053 1.364 0.439 0.493 0.995 1.056 1.667 1.687v0c0.799 0.778 1.441 1.486 1.926 2.123 0.482 0.644 0.82 1.252 1.013 1.825 0.193 0.573 0.268 1.143 0.226 1.711-0.046 0.559-0.19 1.141-0.432 1.747v0c-0.359 0.899-0.934 1.691-1.725 2.373-0.793 0.689-1.784 1.122-2.971 1.299-1.184 0.185-2.538-0.027-4.062-0.636z" fill="#000000" data-fill-palette-color="primary"></path><path d="M112.242 276.966v0c-1.096-0.261-2.051-0.669-2.865-1.222-0.814-0.554-1.468-1.236-1.96-2.045-0.486-0.808-0.787-1.737-0.903-2.789-0.122-1.06-0.035-2.211 0.261-3.455v0c0.302-1.27 0.751-2.353 1.346-3.249 0.596-0.903 1.284-1.611 2.063-2.125 0.787-0.519 1.643-0.851 2.568-0.998 0.926-0.154 1.857-0.119 2.793 0.104v0c0.855 0.204 1.62 0.538 2.293 1.001 0.675 0.457 1.217 1.042 1.627 1.754 0.409 0.712 0.665 1.553 0.765 2.524 0.107 0.972 0.016 2.069-0.276 3.292v0c-0.041 0.174-0.091 0.353-0.149 0.536-0.058 0.184-0.118 0.36-0.179 0.529v0l-10.655-2.538c-0.182 0.973-0.218 1.848-0.106 2.623 0.119 0.777 0.351 1.446 0.698 2.009 0.354 0.558 0.807 1.015 1.357 1.372 0.549 0.364 1.161 0.626 1.836 0.787v0c0.528 0.126 1.033 0.183 1.516 0.171 0.49-0.01 0.969-0.094 1.437-0.251 0.46-0.152 0.898-0.376 1.315-0.672v0l1.007 1.596c-0.534 0.403-1.109 0.714-1.727 0.934-0.619 0.227-1.265 0.345-1.938 0.354-0.675 0.016-1.383-0.065-2.124-0.242zM109.508 266.475v0l8.23 1.96c0.167-0.702 0.223-1.352 0.168-1.951-0.053-0.606-0.203-1.15-0.448-1.632-0.237-0.487-0.568-0.891-0.993-1.211-0.418-0.319-0.922-0.548-1.51-0.688v0c-0.528-0.126-1.046-0.157-1.556-0.095-0.509 0.062-1.007 0.24-1.493 0.534-0.485 0.287-0.932 0.682-1.342 1.184-0.409 0.503-0.761 1.136-1.056 1.899z" fill="#000000" data-fill-palette-color="primary"></path><path d="M130.206 279.685v0c-1.745-0.152-3.052-0.666-3.921-1.541-0.875-0.876-1.259-1.93-1.152-3.162v0c0.072-0.828 0.339-1.556 0.801-2.185 0.461-0.622 1.064-1.131 1.809-1.529 0.745-0.397 1.597-0.678 2.555-0.842 0.966-0.164 1.976-0.2 3.03-0.109v0c0.376 0.033 0.759 0.07 1.149 0.11 0.396 0.048 0.808 0.108 1.236 0.18 0.435 0.072 0.886 0.163 1.351 0.273v0l-0.099 1.853c-0.391-0.103-0.794-0.19-1.208-0.26-0.408-0.07-0.812-0.133-1.214-0.188-0.401-0.063-0.794-0.11-1.177-0.144v0c-0.808-0.07-1.553-0.066-2.236 0.012-0.683 0.078-1.282 0.23-1.797 0.454-0.516 0.224-0.926 0.537-1.23 0.937-0.304 0.401-0.482 0.906-0.535 1.515v0c-0.041 0.465 0.007 0.869 0.142 1.213 0.143 0.337 0.35 0.613 0.621 0.829 0.278 0.217 0.608 0.387 0.99 0.511 0.382 0.123 0.81 0.205 1.282 0.246v0c0.876 0.076 1.665 0.004 2.366-0.218 0.709-0.221 1.326-0.578 1.852-1.07 0.533-0.498 0.957-1.127 1.271-1.885 0.315-0.766 0.516-1.651 0.604-2.658v0c0.132-1.519 0.054-2.722-0.234-3.609-0.282-0.88-0.76-1.528-1.434-1.945-0.673-0.424-1.557-0.684-2.652-0.779v0c-0.739-0.064-1.48 0.012-2.224 0.23-0.743 0.218-1.431 0.593-2.063 1.124v0l-1.036-1.642c0.781-0.656 1.656-1.121 2.625-1.395 0.969-0.274 1.98-0.365 3.033-0.274v0c1.006 0.088 1.913 0.287 2.72 0.599 0.807 0.318 1.483 0.791 2.028 1.417 0.546 0.62 0.938 1.426 1.175 2.42 0.244 0.994 0.304 2.216 0.178 3.666v0l-0.711 8.161-2.628-0.229 0.205-2.351c-0.336 0.536-0.729 0.964-1.177 1.284-0.442 0.32-0.907 0.555-1.396 0.706-0.489 0.15-0.98 0.246-1.473 0.285-0.499 0.032-0.975 0.029-1.426-0.01z" fill="#000000" data-fill-palette-color="primary"></path><path d="M151.761 279.797v0c-0.85 0.05-1.668 0.008-2.454-0.126-0.786-0.14-1.532-0.368-2.238-0.685-0.707-0.317-1.367-0.729-1.982-1.236v0l1.215-2.362 0.187-0.321 0.214 0.122c0.052 0.183 0.111 0.365 0.176 0.547 0.066 0.189 0.23 0.41 0.493 0.663v0c0.501 0.446 1.093 0.8 1.776 1.062 0.676 0.263 1.532 0.365 2.567 0.305v0c0.83-0.048 1.523-0.189 2.081-0.421 0.558-0.232 0.983-0.542 1.277-0.931 0.294-0.389 0.426-0.83 0.398-1.324v0c-0.02-0.336-0.106-0.63-0.258-0.883-0.145-0.253-0.376-0.48-0.69-0.682-0.322-0.208-0.736-0.411-1.243-0.609-0.507-0.191-1.123-0.378-1.85-0.563v0c-1.185-0.268-2.23-0.603-3.134-1.004-0.897-0.395-1.599-0.877-2.108-1.446-0.508-0.562-0.784-1.227-0.828-1.995v0c-0.046-0.782 0.128-1.47 0.519-2.064 0.398-0.601 1.007-1.087 1.825-1.458 0.824-0.378 1.854-0.604 3.088-0.676v0c0.713-0.042 1.364-0.028 1.953 0.041 0.589 0.069 1.136 0.188 1.641 0.359 0.506 0.177 0.977 0.404 1.413 0.681 0.429 0.278 0.847 0.608 1.255 0.99v0l-1.281 1.757-0.221 0.281-0.174-0.155c-0.038-0.177-0.099-0.349-0.185-0.515-0.092-0.16-0.265-0.356-0.519-0.589v0c-0.545-0.374-1.149-0.649-1.813-0.824-0.657-0.175-1.291-0.245-1.901-0.209v0c-0.898 0.052-1.661 0.255-2.287 0.608-0.633 0.347-0.931 0.846-0.893 1.498v0c0.02 0.336 0.156 0.662 0.408 0.977 0.252 0.309 0.703 0.609 1.353 0.902 0.65 0.286 1.567 0.562 2.752 0.83v0c1.299 0.33 2.348 0.682 3.148 1.055 0.799 0.366 1.386 0.81 1.76 1.332 0.381 0.515 0.593 1.142 0.636 1.883v0c0.05 0.85-0.134 1.659-0.55 2.426-0.416 0.767-1.081 1.398-1.995 1.892-0.921 0.494-2.098 0.783-3.531 0.867z" fill="#000000" data-fill-palette-color="primary"></path><path d="M176.426 275.686l-9.788 1.922-0.377-1.921 3.872-0.76-2.213-11.274-3.67 0.72-0.377-1.921 6.046-1.187 2.591 13.195 3.538-0.695zM167.971 258.35v0c-0.458 0.09-0.885 0.002-1.28-0.263-0.395-0.265-0.638-0.631-0.73-1.096v0c-0.095-0.485-0.017-0.924 0.235-1.316 0.252-0.392 0.621-0.636 1.106-0.732v0c0.465-0.091 0.903 0.001 1.315 0.277 0.411 0.276 0.662 0.644 0.752 1.102v0c0.091 0.465-0.003 0.897-0.282 1.295-0.279 0.398-0.651 0.642-1.116 0.733z" fill="#000000" data-fill-palette-color="primary"></path><path d="M190.602 271.172v0c-0.734 0.272-1.514 0.382-2.34 0.329-0.819-0.055-1.637-0.294-2.453-0.717-0.814-0.416-1.567-1.045-2.26-1.887-0.702-0.846-1.291-1.91-1.766-3.192v0c-0.492-1.327-0.732-2.527-0.72-3.601 0.008-1.065 0.197-2.007 0.568-2.826 0.368-0.825 0.857-1.512 1.467-2.061 0.61-0.548 1.282-0.959 2.016-1.231v0c0.676-0.251 1.324-0.37 1.944-0.358 0.611 0.008 1.192 0.122 1.743 0.343 0.548 0.214 1.028 0.531 1.44 0.95v0l-3.221-8.686 2.087-0.774 0.319-0.118 0.082 0.222c-0.083 0.17-0.111 0.334-0.081 0.492 0.023 0.16 0.101 0.42 0.235 0.781v0l6.473 17.37c0.141 0.38 0.296 0.748 0.464 1.103 0.168 0.355 0.397 0.695 0.686 1.02v0l-2.251 0.835c-0.196-0.213-0.365-0.44-0.505-0.681-0.132-0.237-0.248-0.472-0.35-0.705-0.097-0.242-0.192-0.489-0.285-0.741v0c-0.11 0.612-0.305 1.194-0.584 1.744-0.275 0.542-0.638 1.017-1.087 1.425-0.443 0.406-0.983 0.727-1.621 0.964zM190.212 269.053v0c0.696-0.258 1.234-0.623 1.616-1.094 0.378-0.463 0.62-1.006 0.725-1.631 0.099-0.623 0.092-1.302-0.019-2.037-0.12-0.739-0.325-1.499-0.614-2.278v0c-0.396-1.069-0.892-1.981-1.487-2.735-0.586-0.75-1.267-1.263-2.043-1.539-0.77-0.279-1.619-0.246-2.546 0.098v0c-0.631 0.234-1.149 0.565-1.555 0.994-0.408 0.422-0.69 0.926-0.846 1.511-0.157 0.586-0.199 1.231-0.128 1.938 0.071 0.706 0.255 1.459 0.552 2.257v0c0.444 1.198 0.992 2.193 1.644 2.984 0.652 0.791 1.378 1.324 2.176 1.6 0.801 0.282 1.642 0.259 2.525-0.068z" fill="#000000" data-fill-palette-color="primary"></path><path d="M210.053 262.018v0c-0.988 0.541-1.97 0.879-2.946 1.014-0.976 0.135-1.917 0.067-2.825-0.203-0.902-0.274-1.748-0.762-2.54-1.464-0.801-0.705-1.508-1.618-2.122-2.738v0c-0.627-1.145-1.02-2.249-1.18-3.313-0.163-1.07-0.128-2.056 0.106-2.96 0.236-0.913 0.648-1.734 1.236-2.462 0.584-0.735 1.298-1.334 2.142-1.796v0c0.771-0.422 1.562-0.687 2.373-0.794 0.807-0.113 1.602-0.043 2.382 0.211 0.781 0.254 1.534 0.707 2.26 1.359 0.731 0.649 1.399 1.525 2.003 2.627v0c0.086 0.157 0.169 0.323 0.249 0.498 0.08 0.175 0.154 0.346 0.222 0.513v0l-9.607 5.261c0.517 0.845 1.077 1.517 1.68 2.017 0.609 0.497 1.23 0.838 1.864 1.023 0.637 0.176 1.279 0.212 1.927 0.108 0.651-0.098 1.281-0.314 1.89-0.647v0c0.476-0.261 0.889-0.557 1.239-0.891 0.356-0.336 0.656-0.719 0.898-1.149 0.239-0.421 0.414-0.881 0.525-1.38v0l1.817 0.508c-0.126 0.656-0.344 1.273-0.655 1.851-0.307 0.583-0.707 1.104-1.2 1.562-0.49 0.464-1.069 0.879-1.738 1.245zM200.991 256.067v0l7.419-4.063c-0.346-0.633-0.741-1.153-1.183-1.56-0.446-0.414-0.921-0.717-1.427-0.911-0.503-0.203-1.019-0.28-1.549-0.232-0.524 0.044-1.051 0.211-1.581 0.501v0c-0.476 0.261-0.882 0.585-1.218 0.973-0.336 0.388-0.586 0.853-0.75 1.397-0.167 0.538-0.234 1.131-0.201 1.779 0.033 0.647 0.197 1.353 0.49 2.116z" fill="#000000" data-fill-palette-color="primary"></path><path d="M240.395 237.996l-4.149 4.243-15.014-14.682 4.171-4.265c0.85-0.869 1.668-1.529 2.455-1.981 0.792-0.456 1.549-0.729 2.271-0.819 0.723-0.1 1.404-0.025 2.043 0.225 0.634 0.245 1.217 0.628 1.747 1.146v0c0.467 0.456 0.844 0.989 1.133 1.597 0.279 0.609 0.427 1.244 0.444 1.905 0.017 0.66-0.121 1.318-0.415 1.972v0c0.551-0.278 1.122-0.464 1.713-0.559 0.601-0.094 1.194-0.096 1.778-0.005 0.589 0.086 1.147 0.252 1.674 0.498 0.532 0.251 1.007 0.581 1.425 0.99v0c0.624 0.61 1.085 1.282 1.385 2.017 0.305 0.74 0.418 1.518 0.34 2.336-0.078 0.817-0.363 1.678-0.853 2.581-0.49 0.904-1.206 1.838-2.148 2.8zM230.499 233.363l5.902 5.77 2.802-2.866c0.692-0.707 1.206-1.415 1.543-2.123 0.332-0.713 0.433-1.421 0.304-2.123-0.125-0.708-0.531-1.398-1.218-2.071v0c-0.599-0.586-1.254-0.972-1.966-1.158-0.707-0.191-1.471-0.132-2.293 0.179-0.822 0.31-1.714 0.957-2.675 1.939v0zM224.282 227.283l4.796 4.689 2.305-2.357c0.864-0.884 1.446-1.685 1.744-2.402 0.288-0.717 0.364-1.364 0.226-1.941-0.143-0.581-0.44-1.093-0.892-1.535v0c-0.334-0.327-0.703-0.573-1.108-0.738-0.41-0.161-0.848-0.219-1.314-0.175-0.471 0.049-0.976 0.217-1.517 0.506-0.536 0.293-1.094 0.736-1.676 1.33v0z" fill="#000000" data-fill-palette-color="primary"></path><path d="M256.814 218.034l-5.972 7.989-1.568-1.172 2.363-3.161-9.202-6.878-2.24 2.996-1.568-1.172 3.689-4.936 10.771 8.051 2.159-2.889zM238.916 210.844v0c-0.28 0.374-0.655 0.595-1.126 0.664-0.471 0.068-0.897-0.04-1.276-0.324v0c-0.396-0.296-0.632-0.674-0.709-1.134-0.076-0.46 0.034-0.888 0.33-1.285v0c0.284-0.38 0.671-0.605 1.161-0.675 0.49-0.071 0.923 0.034 1.297 0.313v0c0.38 0.284 0.599 0.667 0.659 1.149 0.06 0.482-0.052 0.913-0.336 1.292z" fill="#000000" data-fill-palette-color="primary"></path><path d="M266.487 200.523l-9.876 1.969 0.74 2.662 5.173 2.693-1.137 2.184-19.88-10.346 1.118-2.148 0.157-0.301 0.21 0.109c0.052 0.182 0.142 0.322 0.27 0.419 0.124 0.103 0.357 0.244 0.698 0.422v0l11.179 5.817-2.771-10.142c0.079-0.106 0.159-0.216 0.24-0.328 0.082-0.112 0.162-0.229 0.241-0.351 0.079-0.122 0.161-0.257 0.246-0.406 0.088-0.14 0.169-0.28 0.242-0.42v0l0.404-0.777 2.424 8.556 11.649-2.452z" fill="#000000" data-fill-palette-color="primary"></path><path d="M272.602 185.352v0c-0.371 1.064-0.873 1.973-1.506 2.727-0.634 0.754-1.378 1.335-2.233 1.743-0.853 0.401-1.808 0.607-2.866 0.616-1.067 0.014-2.204-0.189-3.41-0.609v0c-1.233-0.429-2.265-0.985-3.096-1.668-0.838-0.685-1.473-1.441-1.906-2.267-0.436-0.836-0.681-1.721-0.733-2.656-0.059-0.937 0.069-1.86 0.386-2.768v0c0.289-0.83 0.699-1.557 1.228-2.18 0.523-0.625 1.16-1.105 1.909-1.441 0.75-0.335 1.612-0.504 2.588-0.506 0.978-0.009 2.06 0.194 3.247 0.607v0c0.169 0.059 0.342 0.126 0.519 0.202 0.177 0.076 0.347 0.153 0.509 0.232v0l-3.603 10.344c0.95 0.28 1.816 0.403 2.599 0.37 0.785-0.039 1.475-0.203 2.069-0.49 0.591-0.296 1.091-0.7 1.502-1.212 0.417-0.509 0.74-1.092 0.969-1.746v0c0.178-0.512 0.286-1.01 0.323-1.492 0.039-0.488 0.004-0.973-0.105-1.455-0.104-0.473-0.283-0.931-0.535-1.375v0l1.689-0.841c0.346 0.572 0.598 1.176 0.755 1.812 0.163 0.639 0.215 1.293 0.156 1.964-0.052 0.673-0.204 1.369-0.455 2.089zM261.888 187.01v0l2.783-7.989c-0.681-0.237-1.323-0.359-1.925-0.364-0.608-0.008-1.165 0.085-1.669 0.281-0.509 0.187-0.944 0.475-1.305 0.865-0.359 0.384-0.638 0.862-0.837 1.433v0c-0.178 0.512-0.262 1.025-0.252 1.538 0.011 0.513 0.137 1.026 0.38 1.54 0.236 0.512 0.584 0.996 1.043 1.454 0.459 0.458 1.053 0.872 1.782 1.242z" fill="#000000" data-fill-palette-color="primary"></path></g></svg></g></svg></g></svg></g></svg></g><defs></defs></svg><rect width="280" height="280" fill="none" stroke="none" visibility="hidden"></rect></g></svg></g></svg>